<svg xmlns="http://www.w3.org/2000/svg" width="191.974" height="213.353" viewBox="0 0 191.974 213.353">
  <g id="LOGO" transform="translate(8 8)">
    <g id="Group_4" data-name="Group 4" transform="translate(-40 -29.333)">
      <g id="Group_3" data-name="Group 3">
        <g id="Group">
          <path id="Vector" d="M165.493,197.353H10.507A10.615,10.615,0,0,1,0,186.607V81.567a10.849,10.849,0,0,1,3.493-8L80.987,2.74a10.312,10.312,0,0,1,14,0l77.493,70.8a10.793,10.793,0,0,1,3.493,8V186.58A10.582,10.582,0,0,1,165.493,197.353Z" transform="translate(40 29.333)" fill="none" stroke="#58a65c" stroke-width="16"/>
        </g>
        <g id="Group-2" data-name="Group">
          <path id="Vector-2" data-name="Vector" d="M26.667,13.333A13.333,13.333,0,1,1,13.333,0,13.333,13.333,0,0,1,26.667,13.333Z" transform="translate(114.667 165.008)" fill="#fff"/>
          <path id="Vector-3" data-name="Vector" d="M50.667,10.267A64.208,64.208,0,0,1,94.533,27.84l6.8-7.253A73.458,73.458,0,0,0,50.667,0,73.458,73.458,0,0,0,0,20.587l6.8,7.28A64.11,64.11,0,0,1,50.667,10.267Z" transform="translate(77.333 107.675)" fill="#fff"/>
          <path id="Vector-4" data-name="Vector" d="M30.453,10.267a37.212,37.212,0,0,1,23.6,8.507l6.853-7.333A46.253,46.253,0,0,0,0,11.44l6.853,7.333A37.212,37.212,0,0,1,30.453,10.267Z" transform="translate(97.547 138.475)" fill="#fff"/>
        </g>
      </g>
    </g>
  </g>
</svg>
