<svg id="room" xmlns="http://www.w3.org/2000/svg" width="128" height="128" viewBox="0 0 128 128">
  <g id="Group">
    <path id="Vector" d="M96,0H5.333A5.332,5.332,0,0,0,0,5.333v9.333A5.332,5.332,0,0,0,5.333,20H96a5.332,5.332,0,0,0,5.333-5.333V5.333A5.332,5.332,0,0,0,96,0Z" transform="translate(13.333 13.333)" fill="none" stroke="#58a65c" stroke-linecap="round" stroke-linejoin="round" stroke-width="5.333"/>
    <path id="Vector-2" data-name="Vector" d="M0,0V18.667" transform="translate(42.667 14.667)" fill="none" stroke="#58a65c" stroke-linecap="round" stroke-linejoin="round" stroke-width="5.333"/>
    <path id="Vector-3" data-name="Vector" d="M0,0V18.667" transform="translate(85.333 14.667)" fill="none" stroke="#58a65c" stroke-linecap="round" stroke-linejoin="round" stroke-width="5.333"/>
    <path id="Vector-4" data-name="Vector" d="M5.333,46.667H96a5.332,5.332,0,0,0,5.333-5.333v-36A5.332,5.332,0,0,0,96,0H5.333A5.332,5.332,0,0,0,0,5.333v36A5.332,5.332,0,0,0,5.333,46.667Z" transform="translate(13.333 68)" fill="none" stroke="#58a65c" stroke-linecap="round" stroke-linejoin="round" stroke-width="5.333"/>
    <path id="Vector-5" data-name="Vector" d="M0,0H100" transform="translate(14 80.667)" fill="none" stroke="#58a65c" stroke-linecap="round" stroke-linejoin="round" stroke-width="5.333"/>
    <path id="Vector-6" data-name="Vector" d="M0,0V33.333" transform="translate(42.667 81.333)" fill="none" stroke="#58a65c" stroke-linecap="round" stroke-linejoin="round" stroke-width="5.333"/>
    <path id="Vector-7" data-name="Vector" d="M0,0V34" transform="translate(85.333 80.667)" fill="none" stroke="#58a65c" stroke-linecap="round" stroke-linejoin="round" stroke-width="5.333"/>
    <path id="Vector-8" data-name="Vector" d="M29.333,0A14.667,14.667,0,1,1,0,0Z" transform="translate(28 53.333)" fill="none" stroke="#58a65c" stroke-linecap="round" stroke-linejoin="round" stroke-width="5.333"/>
    <path id="Vector-9" data-name="Vector" d="M16.24,17.067H1.413L0,0H17.653Z" transform="translate(81.333 50.667)" fill="none" stroke="#58a65c" stroke-linecap="round" stroke-linejoin="round" stroke-width="5.333"/>
  </g>
</svg>
