<svg id="room" xmlns="http://www.w3.org/2000/svg" width="128" height="128" viewBox="0 0 128 128">
  <g id="Group">
    <path id="Vector" d="M0,0H54" transform="translate(60 76)" fill="none" stroke="#fff" stroke-linecap="round" stroke-linejoin="round" stroke-width="5.333"/>
    <path id="Vector-2" data-name="Vector" d="M0,0H19.333" transform="translate(13.333 76)" fill="none" stroke="#fff" stroke-linecap="round" stroke-linejoin="round" stroke-width="5.333"/>
    <path id="Vector-3" data-name="Vector" d="M0,0V12A26.659,26.659,0,0,0,26.667,38.667H64A26.659,26.659,0,0,0,90.667,12V0" transform="translate(18.667 76)" fill="none" stroke="#fff" stroke-linecap="round" stroke-linejoin="round" stroke-width="5.333"/>
    <path id="Vector-4" data-name="Vector" d="M18.667,62.667v-54A8.666,8.666,0,0,0,10,0H8.667A8.666,8.666,0,0,0,0,8.667" transform="translate(81.333 13.333)" fill="none" stroke="#fff" stroke-linecap="round" stroke-linejoin="round" stroke-width="5.333"/>
    <path id="Vector-5" data-name="Vector" d="M0,13a13,13,0,0,1,26,0Z" transform="translate(65.333 23)" fill="none" stroke="#fff" stroke-linecap="round" stroke-linejoin="round" stroke-width="5.333"/>
    <path id="Vector-6" data-name="Vector" d="M21.333,28.667h-16A5.332,5.332,0,0,1,0,23.333v-18A5.332,5.332,0,0,1,5.333,0h16a5.332,5.332,0,0,1,5.333,5.333v18A5.332,5.332,0,0,1,21.333,28.667Z" transform="translate(32.667 70)" fill="none" stroke="#fff" stroke-linecap="round" stroke-linejoin="round" stroke-width="5.333"/>
  </g>
</svg>
